<svg width="37" height="24" viewBox="0 0 37 24" fill="none" xmlns="http://www.w3.org/2000/svg">
<path d="M0.666016 3C0.666016 1.34315 2.00916 0 3.66602 0H33.666C35.3229 0 36.666 1.34315 36.666 3V21C36.666 22.6569 35.3229 24 33.666 24H3.66601C2.00916 24 0.666016 22.6569 0.666016 21V3Z" fill="#FDEACE"/>
<path d="M22.4237 4.89547L14.6769 4.92211L14.9116 19.1045L22.6584 19.0778L22.4237 4.89547Z" fill="#FF5F00"/>
<path d="M15.1868 12.042C15.1389 9.15741 16.4311 6.59434 18.4551 4.93182C16.9274 3.73298 15.0121 3.01208 12.9358 3.01919C8.01717 3.03604 4.10485 7.08808 4.18781 12.0797C4.27076 17.0712 8.31729 21.096 13.236 21.0792C15.3122 21.0721 17.2033 20.3381 18.691 19.129C16.6124 17.5056 15.2348 14.9266 15.1868 12.042Z" fill="#EB001B"/>
<path d="M33.1475 11.9205C33.2305 16.9121 29.3182 20.9642 24.3995 20.981C22.3233 20.9881 20.408 20.2672 18.8802 19.0684C20.9289 17.4058 22.1964 14.8428 22.1485 11.9582C22.1006 9.07362 20.7233 6.5197 18.6443 4.87122C20.132 3.66206 22.0231 2.92812 24.0994 2.92101C29.018 2.90417 33.065 6.95404 33.1475 11.9205Z" fill="#F79E1B"/>
</svg>
