<svg width="186" height="28" viewBox="0 0 186 28" fill="none" xmlns="http://www.w3.org/2000/svg">
<g clip-path="url(#clip0_5054_61129)">
<path d="M3.84688 19.6431L16.3924 22.0519L17.3671 20.3696L6.21553 15.5513L3.84688 19.6431ZM9.65878 9.60324L19.4172 16.8333L20.3919 15.1503L12.0282 5.5107L9.65953 9.60324H9.65878ZM6.74375 14.6417L17.8953 19.4615L18.8889 17.7422L9.13056 10.5129L6.74375 14.6417ZM15.2172 0L12.5836 4.55568L20.9481 14.1968L22.1876 12.0597L15.2172 0ZM0.666992 25.1448H14.6065L15.8453 23.0077L3.30051 20.5989L0.666992 25.1448ZM22.7878 19.516L26.0494 25.1448H29.7575L22.7878 13.0957L15.818 25.1448H19.5261L22.7878 19.516Z" fill="#FCAF17"/>
<path d="M52.4512 25.1265H57.7637L58.9843 22.9713H52.452L52.4512 25.1265ZM52.4512 19.1421V21.2973H59.9507L61.1986 19.1421H52.4512ZM165.045 21.6976V15.3318H162.693V25.1265H164.662L170.319 18.7153V25.1265H172.67V15.3318H170.593L165.045 21.6976ZM66.2734 15.3318L60.6431 25.1265H63.4128L67.121 18.66L70.8563 25.1265H73.7721L68.1418 15.3318H66.2734ZM49.3553 22.9705L43.7251 13.1675H41.8029L36.1719 22.9705H34.7598V27.9999H37.0005V25.1258H48.5259V27.9999H50.7674V22.9705H49.3553ZM38.9779 22.9705L42.686 16.4957L46.4214 22.9705H38.9779ZM126.195 15.3318H115.253V17.487H124.937L126.195 15.3318ZM63.3848 15.3318H52.452V17.487H62.137L63.3848 15.3318ZM183.238 15.3318L177.689 21.6976V15.3318H175.339V25.1265H177.315L182.965 18.7153V25.1265H185.315V15.3318H183.238ZM157.673 19.1421H152.525V15.3318H150.174V25.1265H152.525V21.2973H157.673V25.1265H160.023V15.3318H157.673V19.1421ZM129.074 15.3318L123.444 25.1265H126.223L129.931 18.66L133.666 25.1265H136.573L130.942 15.3318H129.074ZM105.841 18.8432H102.27V15.3235H99.9195V25.1265H105.823C107.417 25.1265 109.076 24.2449 109.076 21.9345C109.066 18.8976 106.935 18.8432 105.841 18.8432ZM105.705 23.0538H102.261V20.8713H105.705C106.105 20.8713 106.716 20.9802 106.716 21.9625C106.716 22.8714 106.215 23.0538 105.705 23.0538ZM112.593 15.3318H110.27V25.1356H112.593V15.3318ZM79.6945 15.0949C75.7669 15.0949 73.9091 17.4961 73.9091 20.1788C73.9091 22.9796 75.7215 25.262 79.6945 25.262C81.4252 25.262 85.4337 24.4621 85.4337 20.1788C85.4337 17.3781 83.6394 15.0949 79.6945 15.0949ZM79.6672 23.1067C77.3985 23.1067 76.4419 21.8066 76.4419 20.2061C76.4419 18.4504 77.5347 17.2774 79.6672 17.2774C82.0722 17.2774 82.8918 18.4504 82.8918 20.2061C82.8918 22.3068 81.3162 23.1067 79.6672 23.1067ZM115.253 25.1265H120.565L121.794 22.9713H115.253V25.1265ZM115.253 19.1421V21.2973H122.751L124.008 19.1421H115.253ZM139.88 21.6432V15.3318H137.53V25.1265H139.507L145.165 18.7698V25.1265H147.515V15.3318H145.538L139.88 21.6432ZM95.6923 19.3517C96.3113 19.0876 96.8403 18.6608 96.8403 17.596C96.8403 15.5679 95.1361 15.3318 93.9336 15.3318H87.5837V25.1356H94.0433C97.0038 25.1356 97.6145 23.5078 97.6145 22.0162C97.6235 20.334 96.667 19.6423 95.6923 19.3517ZM89.9069 17.4053H93.6695C94.234 17.4053 94.4709 17.6967 94.4709 18.2605C94.4709 18.8424 94.0978 19.1421 93.6695 19.1421H89.9069V17.4053ZM94.0433 23.053H89.9069V20.9522H94.0433C94.7078 20.9522 95.1913 21.1157 95.1913 21.989C95.1913 22.6799 94.8992 23.053 94.0433 23.053Z" fill="black"/>
</g>
<defs>
<clipPath id="clip0_5054_61129">
<rect width="184.649" height="28" fill="white" transform="translate(0.666992)"/>
</clipPath>
</defs>
</svg>
