<svg width="36" height="24" viewBox="0 0 36 24" fill="none" xmlns="http://www.w3.org/2000/svg">
<path d="M1.33203 3.99967C1.33203 2.52692 2.52594 1.33301 3.9987 1.33301H30.6654C32.1381 1.33301 33.332 2.52692 33.332 3.99967V19.9997C33.332 21.4724 32.1381 22.6663 30.6654 22.6663H3.9987C2.52594 22.6663 1.33203 21.4724 1.33203 19.9997V3.99967Z" fill="#DCEFDC"/>
<path d="M18.3122 9.13721H16.3906V11.8431H18.3122C18.7436 11.8431 19.0965 11.7254 19.3318 11.4901C19.6063 11.2549 19.724 10.9019 19.724 10.5098C19.724 10.1176 19.6063 9.80387 19.3318 9.52936C19.0965 9.29407 18.7436 9.13721 18.3122 9.13721Z" fill="#4FAD50"/>
<path d="M17.332 4C12.9007 4 9.33203 7.56862 9.33203 12C9.33203 16.4314 12.9007 20 17.332 20C21.7634 20 25.332 16.4314 25.332 12C25.2928 7.56862 21.7242 4 17.332 4ZM20.3909 12.3922C19.8811 12.8627 19.2144 13.1373 18.4301 13.1373H16.3909V13.8431H19.4105C19.4497 13.8431 19.5281 13.8431 19.5673 13.8824C19.6065 13.9216 19.6065 13.9608 19.6065 14.0392V14.8235C19.6065 14.8627 19.6065 14.9412 19.5673 14.9804C19.5281 15.0196 19.4889 15.0196 19.4105 15.0196H16.3909V16.1569C16.3909 16.1961 16.3908 16.2745 16.3516 16.3137C16.3124 16.3529 16.2732 16.3529 16.234 16.3529H15.2144C15.1752 16.3529 15.0967 16.3529 15.0575 16.3137C15.0183 16.2745 15.0183 16.2353 15.0183 16.1569V15.0196H13.685C13.6458 15.0196 13.5673 15.0196 13.5281 14.9804C13.4889 14.9412 13.4889 14.902 13.4889 14.8235V14.0392C13.4889 14 13.4889 13.9216 13.5281 13.8824C13.5673 13.8431 13.6065 13.8431 13.685 13.8431H15.0183V13.1373H13.685C13.6458 13.1373 13.5673 13.1373 13.5281 13.098C13.4889 13.0588 13.4889 13.0196 13.4889 12.9412V12.0392C13.4889 12 13.4889 11.9608 13.5281 11.9216C13.5673 11.8824 13.6065 11.8824 13.685 11.8824H15.0183V8.11765C15.0183 8.07843 15.0183 8 15.0575 7.96078C15.0967 7.92157 15.136 7.92157 15.2144 7.92157H18.4693C19.2536 7.92157 19.9203 8.15686 20.4301 8.66667C20.9399 9.13726 21.1752 9.80392 21.1752 10.549C21.1752 11.2549 20.9007 11.8823 20.3909 12.3922Z" fill="#4FAD50"/>
</svg>
