<svg width="86" height="24" viewBox="0 0 86 24" fill="none" xmlns="http://www.w3.org/2000/svg">
<g id="Frame" clip-path="url(#clip0_5054_61125)">
<path id="Vector" fill-rule="evenodd" clip-rule="evenodd" d="M13.6325 17.8364H9.97253C4.26294 17.8364 8.41095 5.70962 13.2177 5.70962H19.0006C19.9277 5.70962 21.5625 5.88044 22.3678 3.58682L23.6121 0.0244141H15.6821C11.3878 0.0244141 8.04492 1.53722 5.62934 4.07482C1.45693 8.418 0.0417362 15.2012 1.04214 18.4464C1.99374 21.4476 4.58014 23.424 8.63052 23.4729L11.7782 23.4972H15.6577L16.6094 20.6424C17.3169 18.6172 15.731 17.8364 13.6325 17.8364ZM58.187 12.81L59.3825 8.93043H46.6214C44.4986 8.93043 43.547 9.51603 43.181 10.736L41.9854 14.6156H54.7466C56.8694 14.6156 57.821 14.03 58.187 12.81ZM40.0822 19.642L38.8866 23.5216H51.6478C53.7462 23.5216 54.7222 22.936 55.0882 21.7161L56.2838 17.8364H43.5226C41.4242 17.8364 40.4726 18.422 40.0822 19.642ZM61.1637 3.92842L62.3596 0.0488137H49.5982C47.4754 0.0488137 46.5238 0.634413 46.1578 1.85442L44.9622 5.73402H57.7234C59.8221 5.73402 60.7733 5.14842 61.1637 3.92842ZM41.8878 4.70922C41.351 1.09802 39.4233 0.0488137 34.7385 0.0488137H26.1986L21.221 14.6156H24.3686C26.2473 14.6156 27.199 14.64 28.1994 11.956L30.2734 5.70962H33.4454C36.1538 5.70962 35.5438 9.10124 34.1774 12.3952C32.9574 15.2988 30.8346 17.8608 28.2725 17.8608H22.9778C20.855 17.8608 19.879 18.4464 19.4885 19.6665L18.1709 23.546H22.0506L25.857 23.5216C29.2242 23.4972 31.9814 23.2532 35.2022 20.3496C38.6182 17.2508 42.571 9.2964 41.8878 4.70922ZM84.7832 0.0244141H77.3901L70.4359 7.41761C69.6304 8.2716 68.801 9.1256 67.9955 10.126H67.9223L71.3871 0.0244141H65.3608L57.2354 23.5216H63.2623L65.8484 16.1284L68.5323 13.8592L70.6554 20.5449C71.314 22.6188 71.9977 23.5216 73.4617 23.5216H78.0732L73.3393 10.3944L84.7832 0.0244141Z" fill="#00B33C"/>
</g>
<defs>
<clipPath id="clip0_5054_61125">
<rect width="84.8781" height="24" fill="white" transform="translate(0.333008)"/>
</clipPath>
</defs>
</svg>
